 <svg version="1.0" xmlns="http://www.w3.org/2000/svg"  width="450.000000pt" height="450.000000pt" viewBox="0 0 450.000000 450.000000"  preserveAspectRatio="xMidYMid meet">  <g transform="translate(0.000000,450.000000) scale(0.050000,-0.050000)" fill="#180101" stroke="none"> <path d="M4250 8824 c-157 -85 -307 -178 -343 -215 -76 -76 -127 -180 -127 -260 0 -114 -30 -189 -76 -189 -230 0 -891 -281 -1294 -550 -2209 -1476 -2209 -4745 0 -6220 2166 -1446 5107 -312 5730 2210 486 1966 -735 4043 -2658 4522 l-107 27 11 174 c6 96 21 192 33 214 30 58 -47 141 -245 263 l-162 100 -311 -1 -311 0 -140 -75z m695 -98 c-93 -48 -45 -106 86 -106 27 0 49 -9 49 -20 0 -26 -103 -26 -243 0 -67 13 -130 14 -159 3 -33 -12 -75 -8 -133 14 -109 41 -358 -87 -313 -161 18 -29 -26 -17 -52 14 -18 21 -18 30 -2 30 24 0 71 95 65 132 -4 25 80 46 195 51 l72 2 -70 16 c-84 19 115 9 257 -12 54 -9 95 -5 109 9 16 16 -8 22 -92 22 -202 0 -121 31 91 35 203 4 204 4 140 -29z m-790 -221 c-5 -65 -13 -76 -60 -81 -57 -7 -74 -34 -31 -49 17 -5 10 -26 -20 -64 -24 -31 -44 -73 -44 -94 0 -21 -16 -44 -35 -51 -19 -8 -47 -28 -61 -45 -23 -26 -25 -17 -15 59 15 112 107 301 161 329 22 12 47 32 56 46 31 48 55 24 49 -50z m401 57 c49 10 69 7 77 -14 6 -15 19 -23 30 -16 38 23 133 -14 144 -57 16 -60 5 -66 -127 -60 -125 6 -161 -16 -117 -70 23 -28 22 -31 -8 -19 -23 8 -35 3 -35 -17 0 -16 -10 -29 -22 -29 -12 0 -45 -18 -73 -40 -92 -73 -151 -28 -65 50 22 20 36 41 31 46 -5 5 9 24 32 42 36 30 37 37 11 59 -24 20 -36 18 -62 -8 -18 -17 -32 -26 -32 -18 0 8 -14 2 -31 -12 -17 -14 -28 -46 -25 -71 7 -52 -25 -66 -52 -23 -52 83 107 283 204 256 30 -8 84 -8 120 1z m699 -191 c57 -62 64 -81 55 -152 -7 -55 0 -96 22 -130 18 -27 41 -123 51 -213 12 -109 28 -171 48 -182 40 -22 39 -97 -1 -81 -21 8 -30 -2 -30 -31 0 -24 14 -48 30 -55 34 -13 43 -196 11 -217 -11 -6 -30 -50 -42 -96 -14 -52 -52 -112 -100 -159 -72 -70 -102 -120 -157 -265 -26 -69 -101 -111 -173 -98 -37 7 -49 0 -50 -27 0 -32 -3 -31 -31 5 -29 39 -31 39 -51 3 -17 -29 -25 -32 -38 -12 -13 21 -22 22 -46 1 -23 -19 -41 -19 -72 -2 -23 12 -50 17 -61 10 -10 -6 -35 7 -54 29 -25 29 -59 41 -118 41 -67 0 -90 10 -116 50 -18 28 -44 50 -58 50 -68 0 -154 111 -186 240 -18 72 -50 162 -70 200 l-38 70 12 -110 c19 -173 17 -180 -29 -180 -136 0 -207 345 -89 434 28 22 -28 66 -84 66 -13 0 -38 -146 -33 -185 3 -19 -6 -35 -19 -35 -14 0 -19 -6 -12 -13 8 -7 5 -24 -7 -38 -14 -17 -11 -28 9 -36 20 -7 26 -2 20 16 -6 15 -1 33 11 40 37 23 23 -73 -16 -107 -36 -30 -5 -103 37 -88 5 2 9 -9 7 -25 -1 -16 14 -29 35 -29 21 0 38 -14 38 -31 0 -21 12 -28 35 -21 129 38 145 37 145 -6 0 -23 8 -42 17 -42 9 0 33 -36 53 -79 44 -98 194 -227 352 -304 82 -39 133 -79 161 -127 22 -39 47 -70 54 -70 61 -2 68 -41 16 -89 -57 -52 -85 -66 -63 -31 7 11 3 20 -9 20 -11 0 -21 -13 -21 -30 0 -35 -17 -37 -60 -10 -22 14 -23 19 -4 20 15 0 21 9 14 20 -7 11 -35 20 -63 20 -33 0 -54 13 -61 38 -7 26 -22 34 -51 27 -28 -8 -37 -4 -27 12 8 13 -1 29 -21 37 -20 8 -63 41 -94 75 -32 34 -52 50 -45 36 8 -14 -11 -10 -47 10 -51 29 -61 47 -61 110 0 78 -15 92 -56 51 -64 -64 -16 -142 206 -329 221 -187 252 -207 314 -207 89 0 132 -33 158 -118 28 -94 153 -168 207 -123 65 54 116 162 104 221 -14 68 18 107 119 150 l68 28 0 142 c0 151 -27 174 -50 41 -12 -71 -63 -145 -200 -290 -22 -24 -40 -56 -40 -72 0 -51 -126 -39 -195 19 l-61 51 47 11 c30 7 49 27 50 51 5 102 10 113 39 102 50 -19 95 7 68 39 -18 22 -17 28 5 28 22 1 23 3 0 18 -19 12 1 26 68 49 127 44 213 113 297 238 74 112 192 361 192 406 0 18 18 23 55 17 30 -5 46 -2 34 7 -11 8 -19 26 -17 40 2 14 4 39 6 55 1 17 18 31 37 32 30 2 30 4 -3 12 -29 8 -32 14 -11 27 22 13 22 21 0 48 -23 27 -22 30 6 19 22 -8 33 -2 33 18 0 16 -13 35 -30 41 -34 13 -35 313 0 313 12 0 11 6 -1 15 -44 30 -48 84 -9 105 42 23 140 7 140 -22 0 -10 16 -18 36 -18 45 0 144 -45 144 -65 0 -8 26 -15 59 -15 32 0 63 -8 69 -17 6 -9 65 -37 131 -61 67 -24 121 -53 121 -63 0 -10 7 -17 15 -16 28 7 124 -49 113 -66 -6 -9 -1 -17 10 -17 11 0 77 -34 146 -74 69 -41 132 -73 139 -71 19 5 9 -50 -12 -69 -10 -9 -11 -5 -3 9 17 29 -20 34 -38 5 -13 -20 -5 -22 100 -27 36 -2 58 -13 55 -28 -3 -14 7 -25 21 -25 37 0 138 -109 119 -129 -8 -9 7 -9 33 -1 38 12 46 8 36 -16 -8 -20 7 -38 46 -54 36 -15 53 -34 46 -52 -7 -21 -1 -25 25 -15 28 11 33 6 23 -20 -8 -21 -3 -33 17 -33 16 0 29 -15 29 -33 0 -19 5 -28 12 -22 21 21 62 -32 53 -68 -7 -27 0 -32 36 -22 37 9 43 5 33 -23 -8 -19 -5 -29 5 -23 10 6 24 -7 31 -29 7 -22 31 -50 54 -62 33 -18 36 -26 14 -40 -20 -12 -21 -17 -3 -18 14 0 26 -25 26 -55 2 -48 4 -50 17 -15 16 39 98 -71 86 -115 -2 -8 8 -15 24 -15 15 0 39 -29 54 -64 14 -35 42 -80 62 -100 19 -19 41 -72 48 -116 7 -44 21 -80 31 -80 9 0 17 -17 17 -38 0 -21 14 -43 30 -49 17 -7 29 -19 28 -27 -11 -65 6 -126 34 -126 20 0 28 -11 21 -30 -7 -16 -3 -30 8 -30 10 0 19 -16 19 -36 0 -20 11 -47 24 -60 13 -13 17 -24 8 -24 -9 0 -6 -13 8 -30 13 -16 27 -93 29 -170 3 -78 13 -148 21 -156 9 -8 11 2 4 21 -7 19 -4 35 7 35 10 0 20 -38 21 -85 0 -47 5 -103 11 -125 5 -22 14 -84 19 -138 5 -54 17 -113 25 -130 27 -58 12 -724 -16 -741 -19 -12 -19 -20 -2 -30 15 -10 16 -23 4 -38 -11 -13 -17 -61 -15 -108 3 -60 -4 -85 -22 -85 -19 0 -23 -16 -14 -55 7 -30 14 -59 15 -65 5 -33 -30 -180 -43 -180 -9 0 -17 -19 -19 -43 -2 -24 -10 -49 -20 -55 -9 -7 -16 -25 -15 -42 1 -16 -10 -52 -24 -80 -14 -27 -26 -65 -26 -83 0 -19 -11 -37 -23 -41 -13 -5 -25 -35 -27 -67 -1 -33 -26 -95 -54 -140 -28 -45 -55 -99 -60 -120 -5 -21 -19 -37 -32 -34 -14 3 -24 -18 -24 -49 0 -46 -134 -271 -182 -306 -7 -5 -17 -28 -21 -50 -4 -22 -21 -41 -37 -42 -67 -4 -80 -9 -80 -28 0 -11 16 -20 35 -21 32 0 31 -3 -4 -30 -21 -16 -30 -30 -20 -30 11 -1 -1 -10 -26 -20 -25 -10 -45 -32 -45 -48 0 -17 -9 -31 -20 -31 -11 0 -20 -15 -20 -32 0 -28 -5 -29 -34 -5 -18 15 -27 17 -20 4 8 -13 5 -27 -7 -31 -11 -3 -22 -27 -24 -51 -2 -25 -15 -45 -29 -45 -14 0 -26 -9 -26 -20 0 -11 -12 -20 -27 -20 -15 0 -37 -23 -50 -52 -15 -33 -35 -48 -53 -41 -17 7 -30 1 -30 -13 0 -13 -32 -45 -70 -71 -38 -26 -65 -56 -59 -65 6 -10 1 -18 -11 -18 -33 0 -159 -152 -161 -194 -2 -35 -119 -154 -119 -121 0 18 10 39 22 46 12 7 17 30 12 50 -5 21 -1 40 10 44 11 3 0 40 -25 81 -51 87 -73 84 -42 -5 11 -34 14 -61 5 -61 -19 0 -62 91 -62 132 0 16 -16 35 -35 42 -63 22 -105 71 -105 122 0 27 -20 67 -45 89 -31 28 -37 43 -20 49 48 18 85 69 85 117 0 64 -99 67 -282 8 -231 -73 -291 -118 -233 -176 24 -24 -66 -54 -109 -37 -14 6 -5 12 22 12 45 2 46 7 34 98 l-12 96 70 0 c82 0 130 36 96 70 -17 17 -9 35 31 69 61 52 83 47 83 -22 0 -35 11 -49 38 -49 68 0 102 23 102 69 0 24 7 51 15 59 15 16 17 25 22 123 5 110 176 161 233 69 8 -12 16 -152 19 -311 4 -224 12 -297 35 -324 17 -19 29 -55 27 -80 -3 -27 7 -45 23 -45 40 0 55 56 27 107 -13 25 -21 54 -19 64 3 10 -5 55 -18 99 -22 78 -27 170 -21 380 8 247 23 217 -123 241 -249 41 -288 28 -252 -84 14 -44 -87 -187 -131 -187 -27 0 -183 -105 -211 -142 -37 -50 -199 -101 -746 -236 -193 -48 -233 -50 -510 -22 -110 11 -331 28 -490 38 -241 15 -312 27 -420 71 -114 46 -357 98 -377 80 -17 -16 43 -289 69 -310 60 -51 39 -587 -27 -658 -65 -71 -180 -109 -158 -53 10 27 5 32 -24 23 -25 -8 -44 3 -61 35 -13 25 -51 56 -84 69 -32 12 -57 34 -54 48 4 15 -10 26 -29 24 -19 -1 -30 6 -24 15 6 10 -3 18 -21 18 -19 0 -30 11 -25 25 9 26 8 28 -86 140 -71 85 -99 94 -99 34 0 -23 8 -37 17 -31 34 21 148 -127 122 -159 -32 -39 -198 73 -201 137 -5 94 -9 104 -45 111 -22 4 -32 -2 -25 -14 7 -11 4 -26 -8 -33 -11 -7 -20 -32 -21 -56 0 -39 -3 -40 -20 -10 -43 74 -14 3043 32 3361 16 107 29 240 29 296 0 261 166 453 637 737 114 69 295 190 403 269 108 79 239 170 292 203 92 57 98 66 123 189 17 85 42 147 75 181 63 65 62 70 -5 75 -54 4 -54 3 -15 -28 32 -26 33 -30 5 -20 -37 13 -135 -76 -135 -123 0 -14 -8 -21 -19 -15 -10 6 -24 3 -31 -9 -7 -11 -1 -20 12 -20 14 0 5 -22 -21 -49 -26 -27 -56 -47 -68 -45 -12 2 -23 -7 -25 -21 -1 -14 -4 -35 -5 -46 -2 -12 -11 -16 -22 -10 -10 6 -24 2 -31 -9 -7 -11 -23 -15 -35 -7 -14 9 -17 1 -8 -22 10 -27 6 -32 -18 -24 -17 7 -35 0 -42 -17 -6 -17 -27 -30 -47 -30 -19 0 -40 -18 -46 -40 -6 -22 -25 -40 -43 -40 -33 0 -40 -5 -136 -90 -32 -28 -69 -44 -86 -37 -21 8 -35 -2 -42 -29 -6 -23 -30 -45 -54 -48 -24 -4 -41 -19 -38 -33 4 -14 -4 -20 -16 -13 -55 35 -122 26 -88 -11 29 -32 25 -37 -60 -70 -53 -20 -91 -47 -91 -65 0 -17 -6 -25 -12 -18 -7 7 -39 -14 -72 -47 -32 -32 -66 -59 -74 -59 -9 0 -26 -23 -39 -51 -13 -28 -32 -46 -44 -39 -11 7 -18 6 -15 -4 6 -23 -62 -146 -81 -146 -22 0 -62 -172 -68 -295 -3 -58 -12 -106 -20 -107 -8 -2 -24 -5 -35 -8 -11 -3 -25 -6 -31 -7 -7 -2 2 -17 20 -34 36 -37 39 -76 11 -129 -13 -25 -13 -42 0 -50 12 -7 7 -31 -13 -61 -17 -27 -24 -49 -14 -49 9 0 4 -9 -13 -20 -20 -13 -21 -19 -5 -20 24 0 20 -180 -6 -222 -6 -10 -4 -18 5 -18 9 0 17 -23 19 -50 1 -28 -3 -50 -10 -50 -26 0 -24 -487 2 -503 18 -12 15 -16 -10 -17 -19 0 -35 -9 -35 -20 0 -11 14 -20 30 -20 17 0 30 -10 30 -21 0 -12 -8 -16 -18 -10 -35 21 -44 -268 -13 -414 4 -19 1 -35 -6 -35 -7 0 -12 -80 -12 -179 1 -121 -5 -175 -20 -166 -11 7 -9 -2 5 -19 20 -25 20 -34 1 -40 -15 -5 -18 -19 -7 -36 10 -16 20 -78 23 -139 3 -61 6 -122 6 -136 1 -14 1 -49 -1 -77 -2 -29 8 -59 21 -67 18 -12 17 -18 -4 -26 -16 -6 -26 -32 -23 -58 2 -26 6 -60 7 -77 1 -27 4 -27 21 0 15 23 19 16 19 -30 0 -43 -5 -52 -18 -32 -12 19 -16 2 -14 -53 2 -44 9 -77 16 -73 19 11 35 -81 38 -212 4 -169 2 -177 -36 -171 -19 3 -42 -5 -50 -17 -9 -14 -15 -9 -15 13 0 19 -9 35 -20 35 -42 0 -320 265 -371 355 -21 36 -45 65 -54 65 -24 0 -115 94 -115 120 0 12 -27 48 -60 80 -33 32 -60 68 -60 79 0 12 -16 22 -35 23 -19 0 -24 6 -11 11 13 5 19 22 13 38 -6 16 -19 24 -29 18 -10 -6 -19 -2 -20 10 -2 11 -4 30 -6 42 -1 11 -16 29 -32 39 -17 11 -22 20 -12 20 10 0 -3 18 -28 40 -25 22 -39 40 -31 40 9 0 6 12 -6 27 -13 15 -18 31 -12 37 5 6 -4 22 -21 36 -16 14 -30 37 -30 52 0 16 -9 28 -20 28 -11 0 -19 7 -17 15 6 27 -38 116 -71 143 -26 22 -28 33 -8 57 19 23 17 33 -10 48 -19 11 -30 28 -23 38 6 11 -9 48 -34 83 -25 35 -34 57 -21 48 30 -18 30 -7 1 56 -13 28 -28 47 -35 43 -7 -4 -14 17 -16 46 -12 143 -18 170 -41 178 -14 5 -25 22 -25 39 0 19 11 26 30 19 39 -15 39 15 0 47 -17 14 -30 40 -30 58 0 19 -9 43 -21 55 -14 14 -14 37 0 75 12 30 13 50 4 44 -9 -6 -26 21 -38 59 -12 38 -15 69 -8 69 7 0 15 38 18 85 2 47 10 124 17 173 8 57 6 83 -7 75 -35 -22 -43 132 -11 184 17 27 22 43 13 37 -9 -5 -18 34 -20 88 -2 54 4 94 12 89 8 -5 16 53 17 130 2 99 12 149 34 172 21 21 25 39 12 55 -25 29 -16 97 14 107 12 4 17 20 12 34 -6 15 0 33 13 41 17 11 16 19 -4 32 -19 12 -20 17 -3 18 14 0 20 13 14 28 -6 15 -1 34 11 41 11 7 21 44 21 82 0 46 9 69 28 69 31 0 77 108 55 130 -7 7 3 25 22 39 19 14 37 47 40 73 3 26 10 53 15 58 6 6 25 51 42 100 28 76 40 89 80 85 35 -4 40 0 20 13 -18 12 -23 35 -14 72 13 50 25 70 86 138 13 15 19 33 12 40 -7 6 -3 12 8 12 12 0 26 19 32 42 6 23 21 36 33 29 11 -7 21 -3 21 9 0 12 9 17 20 10 11 -7 15 1 8 17 -6 16 0 35 13 43 18 12 18 18 0 30 -15 9 -1 23 38 40 38 15 60 37 56 58 -3 20 8 31 30 29 31 -2 47 39 37 98 -1 8 11 15 28 15 16 0 30 11 30 25 0 27 79 86 105 79 8 -2 15 13 15 35 0 21 11 46 25 55 24 15 35 18 74 24 11 1 15 15 9 30 -7 17 6 34 31 42 23 7 56 41 74 76 30 58 34 60 49 24 8 -22 16 -29 17 -16 0 13 19 29 41 36 22 7 35 22 29 32 -19 30 30 77 66 63 22 -8 27 -4 16 13 -10 16 0 29 27 36 23 6 42 17 42 25 0 7 32 26 70 41 39 15 70 38 70 51 0 14 20 20 50 14 37 -7 50 -1 50 23 0 17 14 32 30 32 17 0 30 10 30 21 0 12 9 16 19 9 11 -6 38 10 61 36 23 27 61 46 86 44 24 -2 50 6 58 18 8 12 26 22 40 23 53 4 156 54 145 71 -6 10 14 19 45 21 92 5 97 6 153 43 30 20 63 30 74 24 10 -7 19 -1 19 14 0 16 6 18 15 6 20 -27 71 -37 55 -10 -7 11 6 20 30 20 23 0 37 9 30 20 -7 11 0 20 14 20 15 0 51 27 81 61 l53 61 52 -102 c37 -73 69 -109 111 -123 34 -12 59 -35 59 -54 -1 -26 -4 -27 -18 -6 -21 34 -42 -14 -42 -101 0 -61 67 -176 103 -176 12 0 18 68 15 170 -4 178 15 230 83 230 38 0 85 39 117 95 16 29 25 30 67 8 57 -31 145 -24 145 12 0 31 65 75 138 93 31 8 86 36 122 63 35 27 71 49 79 49 9 0 44 23 78 51 212 174 311 188 428 60z m-1091 -31 c-5 -38 0 -60 15 -60 39 0 3 -37 -70 -72 -38 -18 -69 -47 -69 -64 0 -17 -5 -25 -12 -19 -27 27 89 275 128 275 9 0 13 -27 8 -60z m1485 -6258 c-10 -10 -68 -43 -129 -75 -74 -38 -98 -59 -74 -63 20 -4 81 16 137 45 55 29 109 50 119 47 42 -14 -38 -78 -141 -114 -104 -36 -109 -42 -134 -135 -43 -164 -30 -197 51 -131 124 101 164 125 182 114 11 -7 47 9 78 35 32 27 117 66 190 87 73 20 132 44 132 53 0 8 18 15 39 15 41 0 91 -68 72 -98 -6 -10 3 -44 19 -75 16 -31 30 -67 30 -80 0 -12 26 -48 57 -80 75 -74 94 -151 48 -192 -57 -50 -191 -103 -248 -98 -43 4 -55 -4 -60 -41 -9 -58 -77 -76 -77 -19 0 29 -10 37 -40 29 -22 -6 -40 -1 -40 12 0 12 -27 22 -59 22 -46 0 -57 -7 -48 -31 8 -21 19 -25 32 -12 11 11 33 15 49 9 24 -10 25 -15 3 -30 -19 -13 -13 -15 18 -6 25 7 45 8 45 2 0 -33 -96 -102 -135 -96 -25 4 -45 -3 -45 -15 0 -11 -16 -21 -36 -21 -20 0 -54 -13 -75 -28 -26 -20 -49 -23 -74 -9 -21 11 -35 11 -35 0 0 -10 -14 -24 -31 -31 -20 -7 -26 -3 -17 11 7 12 -12 4 -44 -19 -32 -24 -97 -47 -145 -52 -51 -6 -99 -25 -115 -46 -25 -34 -27 -34 -27 -1 -1 19 -10 35 -21 35 -11 0 -20 -16 -21 -35 0 -31 -3 -31 -30 5 -27 36 -27 42 5 67 28 22 29 26 4 17 -27 -9 -37 23 -65 191 -36 221 -40 231 -78 199 -30 -25 -179 -18 -277 12 -103 33 -198 43 -198 21 0 -11 -9 -14 -20 -7 -11 7 -20 -2 -20 -19 0 -18 17 -31 40 -31 22 0 40 -9 40 -20 0 -11 14 -20 30 -20 17 0 30 -10 30 -22 0 -17 8 -16 28 1 21 17 32 17 42 1 8 -13 29 -17 47 -10 149 58 259 17 273 -100 5 -44 15 -102 22 -130 7 -27 17 -89 23 -136 l9 -86 -77 33 c-42 19 -86 33 -97 32 -11 -1 -49 -5 -85 -10 -36 -4 -65 1 -65 12 0 11 -15 8 -34 -8 -29 -24 -32 -23 -21 7 7 19 4 40 -7 47 -13 8 -12 22 3 41 19 22 17 28 -9 28 -18 0 -32 -16 -32 -38 0 -21 -13 -43 -30 -49 -16 -7 -30 -4 -30 6 0 9 -18 13 -39 7 -22 -6 -38 -21 -35 -33 2 -13 -25 -26 -61 -29 -48 -5 -65 2 -65 25 0 38 -32 41 -46 4 -8 -21 -38 -22 -147 -8 -75 11 -164 20 -197 22 -33 1 -73 14 -88 29 -23 22 -31 22 -45 0 -12 -20 -16 -20 -17 -1 0 20 -8 20 -39 1 -48 -30 -76 -8 -41 34 20 25 19 30 -8 30 -17 0 -32 9 -32 21 0 13 -25 16 -65 9 -84 -16 -192 21 -158 55 13 13 23 68 23 122 0 65 12 113 33 136 23 26 25 37 8 37 -17 0 -21 16 -13 50 9 33 4 51 -13 52 -17 1 -18 4 -2 11 16 6 18 28 6 71 l-18 61 85 -13 c46 -7 146 -18 221 -25 116 -11 140 -20 158 -59 11 -25 33 -51 48 -56 33 -13 90 7 78 27 -5 8 12 27 39 41 46 24 47 28 15 53 -30 24 -20 26 75 15 61 -7 119 -22 130 -33 13 -13 2 -17 -34 -11 -29 6 -65 2 -80 -7 -16 -10 18 -16 84 -16 78 0 101 5 80 19 -21 14 3 19 83 20 82 0 116 -8 124 -30 13 -35 153 -43 153 -9 0 12 9 16 21 8 11 -7 15 -30 8 -51 -9 -28 -2 -38 26 -38 20 0 46 -8 56 -17 27 -25 149 -45 149 -26 0 10 25 18 55 19 30 1 100 12 155 24 55 13 117 27 138 31 54 11 54 12 58 152 4 117 1 126 -36 119 -76 -15 -367 -14 -357 2 5 9 74 17 153 17 169 2 208 14 240 76 14 28 76 69 154 103 150 65 154 66 129 42z m-2090 -121 c12 -21 21 -66 21 -100 0 -33 9 -61 20 -61 18 0 28 28 22 65 -1 8 7 15 18 15 11 0 20 14 20 30 0 42 54 37 105 -10 23 -22 58 -40 78 -40 19 0 44 -16 56 -35 18 -31 23 -31 41 -5 52 74 96 -96 61 -235 -7 -31 -61 6 -61 42 0 42 -15 49 -185 82 -249 48 -384 122 -334 183 10 12 12 28 4 36 -17 17 50 72 88 72 14 0 35 -17 46 -39z m1737 -5 c13 -13 24 -31 24 -40 0 -23 -55 -20 -63 4 -5 12 -32 13 -77 2 -38 -10 -112 -24 -163 -31 -94 -13 -126 -44 -104 -102 9 -23 18 -25 40 -7 37 31 54 12 37 -40 -7 -23 -29 -42 -49 -42 -27 0 -36 -14 -34 -50 3 -56 206 -74 327 -29 41 16 50 15 34 0 -20 -21 -130 -46 -318 -74 -109 -15 -142 40 -122 207 17 146 14 143 225 186 225 45 215 44 243 16z m-819 -48 c58 -6 101 -16 95 -23 -27 -26 -457 13 -489 45 -12 12 140 4 394 -22z m-285 -183 c-16 -16 -138 22 -146 46 -4 12 24 19 64 18 38 -1 71 8 73 19 1 12 6 1 11 -25 5 -25 4 -52 -2 -58z m418 9 c39 -20 39 -20 0 -35 -22 -8 -47 -10 -56 -5 -9 5 -64 12 -124 16 -114 7 -157 22 -141 49 14 22 270 2 321 -25z m619 -6 c25 -10 27 -19 9 -40 -16 -20 -32 -22 -61 -7 -63 34 -19 74 52 47z"/> <path d="M4960 7991 c0 -17 -18 -47 -40 -66 -41 -35 -56 -125 -20 -125 11 0 20 -13 20 -30 0 -16 14 -30 31 -30 17 0 26 8 20 19 -6 10 -3 23 7 30 10 6 23 -3 29 -19 17 -45 95 -37 107 10 13 47 43 52 59 10 13 -34 78 -40 98 -9 16 27 -47 99 -87 99 -21 0 -23 -7 -8 -25 16 -20 -1 -23 -78 -18 -85 6 -125 43 -46 43 16 0 34 13 40 28 6 16 33 34 61 41 87 22 40 61 -80 67 -92 5 -113 0 -113 -25z"/> <path d="M4380 7940 c0 -29 13 -40 50 -40 30 0 50 -11 50 -29 0 -16 16 -38 35 -49 28 -17 18 -21 -48 -21 -46 -1 -99 -7 -119 -14 -25 -10 -30 -7 -18 13 13 21 8 23 -22 10 -21 -10 -63 -17 -93 -16 -57 0 -63 -9 -43 -62 15 -39 128 -43 167 -7 21 20 28 20 35 0 15 -40 82 -29 107 17 21 40 24 40 62 6 38 -35 41 -34 88 21 64 75 62 103 -11 118 -43 9 -60 24 -60 53 0 34 -13 40 -90 40 -77 0 -90 -6 -90 -40z"/> <path d="M5539 7660 c-15 -54 -13 -162 3 -171 10 -7 17 -5 15 5 -3 9 2 36 10 61 9 24 6 60 -5 80 -12 19 -22 31 -23 25z"/> <path d="M3899 7399 c-28 -53 -17 -143 19 -155 17 -6 22 0 13 14 -7 12 5 53 27 89 23 37 36 73 28 80 -25 25 -65 13 -87 -28z"/> <path d="M4654 7408 c-46 -25 -52 -36 -33 -59 30 -36 29 -36 68 3 18 18 45 27 62 21 39 -16 37 -73 -2 -73 -18 0 -62 -23 -98 -51 -37 -28 -87 -54 -111 -59 -67 -13 -94 -44 -109 -123 -20 -103 10 -118 95 -50 112 89 464 110 579 34 59 -38 95 -28 95 27 0 41 -80 122 -121 122 -16 0 -59 27 -97 60 -37 33 -80 60 -95 60 -33 0 -35 32 -3 52 13 8 27 4 31 -8 10 -28 58 -32 74 -6 44 72 -76 110 -134 42 -40 -46 -75 -52 -75 -12 0 15 -14 33 -32 40 -38 14 -26 17 -94 -20z m217 -188 c27 0 80 -56 65 -70 -16 -16 -236 -26 -245 -11 -5 7 18 29 50 48 36 21 60 53 60 79 l2 44 21 -45 c12 -25 33 -45 47 -45z"/> <path d="M4247 7009 c-8 -21 -1 -41 20 -52 18 -11 33 -39 34 -63 0 -43 1 -43 30 -5 26 35 26 41 -1 56 -16 9 -30 30 -30 45 0 43 -39 57 -53 19z"/> <path d="M4770 6960 c-7 -11 -30 -20 -51 -20 -44 0 -47 -8 -19 -59 16 -30 37 -35 115 -28 128 12 145 19 145 64 0 51 -162 88 -190 43z"/> <path d="M5286 6568 c-52 -22 7 -75 172 -152 741 -348 719 -332 822 -600 103 -268 133 -444 106 -630 -14 -98 -19 -307 -12 -566 7 -249 3 -463 -10 -545 -21 -130 -20 -138 27 -188 57 -62 89 -163 89 -285 0 -182 46 -451 83 -493 45 -51 47 -134 7 -340 -31 -167 -27 -199 26 -171 19 10 43 21 54 25 11 4 21 25 22 47 1 22 9 90 19 150 9 61 14 119 11 130 -15 44 -14 102 2 134 12 25 5 40 -25 57 -40 21 -40 24 -8 48 28 19 30 28 9 41 -17 11 -21 8 -12 -7 9 -14 2 -23 -17 -23 -42 0 -39 33 4 58 32 19 32 21 1 21 -23 1 -31 14 -26 42 4 22 -1 35 -11 28 -10 -6 -19 2 -19 18 0 16 11 34 25 40 16 6 13 10 -7 11 -32 2 -60 131 -56 262 1 46 2 47 18 10 9 -22 18 -29 19 -16 0 13 -19 57 -42 97 l-44 74 45 -24 c24 -13 55 -20 68 -16 13 5 -9 20 -50 33 -112 37 -178 262 -76 262 25 0 61 -53 45 -68 -7 -8 2 -8 22 -1 39 16 -18 89 -68 89 -14 0 -19 17 -13 40 6 22 1 40 -10 40 -13 0 -16 24 -9 60 7 33 4 81 -6 107 -11 30 -11 55 2 68 12 12 13 25 3 32 -10 6 -15 43 -10 82 5 42 17 66 29 58 13 -8 15 -3 5 12 -25 41 -47 161 -30 161 20 0 2 80 -25 115 -14 17 -12 25 7 25 20 0 20 6 3 23 -16 16 -17 35 -3 60 11 20 13 37 6 37 -7 0 -3 12 9 27 13 15 18 31 12 37 -26 26 -24 153 2 143 22 -9 22 1 3 53 -21 56 -19 67 15 92 21 15 28 28 14 28 -14 0 -23 11 -22 25 10 70 -3 107 -21 65 -14 -34 -17 -30 -19 24 0 35 -10 87 -21 116 -13 35 -13 48 0 40 31 -19 24 24 -10 57 -16 17 -30 52 -30 79 0 27 -14 60 -30 74 -17 14 -29 35 -28 48 7 60 -4 113 -22 102 -11 -7 -20 -4 -20 6 0 9 -23 28 -51 41 -28 13 -46 32 -39 43 7 11 -2 20 -19 20 -17 0 -31 14 -31 30 0 17 -18 30 -40 30 -22 0 -58 18 -80 40 -22 22 -42 39 -45 39 -62 -16 -283 107 -230 127 14 6 -2 8 -35 5 -36 -3 -70 7 -86 27 -20 24 -23 24 -12 2 17 -33 -47 8 -76 50 -8 11 -24 21 -35 23 -12 1 -23 4 -26 6 -3 2 -18 7 -35 10 -16 4 -52 12 -80 18 -27 6 -61 6 -74 1z"/> <path d="M5213 6250 c-45 -34 -98 -130 -72 -130 28 0 23 -108 -6 -139 -20 -22 -20 -24 2 -11 15 8 45 55 66 103 21 48 42 87 46 87 10 0 98 -147 100 -166 4 -52 61 -47 85 8 44 106 -138 311 -221 248z"/> <path d="M3952 6100 c8 -49 31 -121 52 -160 l38 -70 -11 86 c-7 47 -30 119 -52 160 l-40 74 13 -90z"/> <path d="M4262 5989 c-84 -83 -165 -159 -182 -169 -24 -15 -23 -20 7 -32 38 -14 197 29 184 50 -4 7 4 28 19 48 24 34 35 32 203 -28 305 -109 407 -107 137 2 -140 57 -303 157 -180 111 22 -9 68 -22 103 -31 34 -8 74 -22 87 -30 17 -10 22 -6 16 12 -5 15 -39 38 -76 50 -37 12 -59 27 -49 32 11 5 7 6 -7 3 -22 -6 -92 20 -121 44 -3 3 4 24 16 47 40 74 -2 45 -157 -109z"/> <path d="M5905 6097 c-14 -14 -25 -39 -24 -56 0 -30 55 -141 60 -121 24 113 3 216 -36 177z"/> <path d="M5703 6040 c-2 -57 46 -124 112 -158 l45 -23 -35 70 c-20 41 -46 66 -61 61 -14 -5 -21 -1 -14 10 7 11 3 20 -7 20 -11 0 -24 16 -29 35 -6 23 -10 18 -11 -15z"/> <path d="M4864 5769 c-2 -32 7 -49 26 -49 37 0 39 47 4 76 -19 17 -26 10 -30 -27z"/> <path d="M6026 5778 c-15 -15 -17 -39 -6 -65 36 -91 46 -123 44 -136 -2 -7 10 -24 25 -36 23 -19 26 -16 17 17 -6 23 -2 66 8 96 36 113 -20 192 -88 124z"/> <path d="M4773 5700 c-21 -38 -104 -132 -185 -207 -81 -76 -162 -166 -181 -200 -109 -205 -144 -282 -135 -292 6 -6 20 6 32 26 11 21 37 54 57 74 20 20 39 57 42 82 4 25 28 56 53 69 72 35 144 111 144 151 0 21 9 37 20 37 11 0 42 36 70 80 74 117 97 104 85 -45 -7 -87 -2 -133 16 -149 14 -14 32 -94 40 -180 7 -86 26 -170 41 -187 31 -35 -29 -159 -77 -159 -14 0 -69 -36 -123 -80 -53 -44 -104 -80 -114 -80 -10 0 -18 -22 -18 -50 0 -38 -10 -50 -45 -50 -35 -1 -39 -5 -16 -19 32 -20 157 69 160 114 0 13 41 42 90 64 49 23 95 51 102 63 7 11 35 16 61 9 55 -14 58 -2 28 142 -39 197 -100 621 -105 737 l-5 120 -37 -70z"/> <path d="M6240 5642 c-11 -44 -25 -136 -29 -206 -14 -211 -100 -295 -191 -186 -32 38 -100 39 -100 1 0 -15 17 -34 38 -40 97 -31 122 -269 33 -303 -30 -12 -15 -128 16 -127 75 2 260 397 290 620 32 226 -11 408 -57 241z"/> <path d="M4288 5658 c-5 -9 -22 -12 -37 -6 -15 6 -33 1 -40 -11 -7 -11 -31 -21 -52 -21 -22 0 -39 -13 -39 -30 0 -47 142 -39 196 11 24 22 44 48 44 56 0 21 -59 21 -72 1z"/> <path d="M5280 5590 c0 -58 9 -90 25 -91 15 0 11 -11 -10 -27 -44 -33 -46 -92 -3 -92 21 0 28 11 20 32 -7 17 -6 41 1 53 11 18 15 111 9 195 -6 66 -42 4 -42 -70z"/> <path d="M2941 5546 c1 -24 99 -91 99 -67 0 12 -9 21 -20 21 -11 0 -18 11 -15 24 3 13 -11 27 -30 31 -19 4 -35 1 -34 -9z"/> <path d="M4035 5546 c-32 -8 -32 -12 -3 -41 27 -27 34 -27 50 -3 34 55 26 63 -47 44z"/> <path d="M3425 5517 c-17 -17 -15 -30 6 -51 16 -16 24 -37 18 -48 -6 -10 -2 -18 10 -18 27 0 27 -74 0 -91 -12 -7 -15 -28 -8 -46 22 -52 21 -182 -1 -191 -11 -5 -5 -10 14 -10 48 -3 50 5 65 253 l13 225 -47 0 c-26 0 -57 -10 -70 -23z"/> <path d="M5071 5465 c6 -130 10 -151 23 -138 25 26 24 193 -2 193 -13 0 -22 -24 -21 -55z"/> <path d="M5729 5478 c-5 -7 -34 -18 -66 -24 -42 -9 -61 -26 -68 -63 -10 -53 34 -72 76 -33 42 39 280 39 331 0 101 -78 136 -13 48 87 -47 54 -293 78 -321 33z"/> <path d="M3982 5465 c7 -40 -5 -52 -22 -25 -16 25 -19 23 -20 -12 0 -22 -22 -62 -50 -88 -58 -55 -65 -99 -15 -91 20 3 34 21 32 42 -5 51 70 113 118 97 37 -11 37 -10 4 40 -33 52 -51 66 -47 37z"/> <path d="M2904 5343 c11 -40 27 -113 35 -163 9 -49 17 -81 19 -70 2 11 16 3 32 -19 55 -72 54 -14 -2 147 -58 167 -121 246 -84 105z"/> <path d="M3060 5300 c0 -47 9 -60 42 -60 24 0 38 -10 32 -25 -4 -14 7 -56 25 -95 19 -38 30 -86 26 -105 -4 -19 1 -35 13 -35 11 0 16 16 10 35 -7 20 11 10 41 -25 34 -39 50 -76 44 -106 -6 -35 4 -51 39 -65 28 -10 48 -34 48 -57 0 -22 14 -53 30 -69 17 -17 30 -53 30 -82 0 -50 27 -69 48 -34 21 34 29 163 10 174 -10 6 -18 33 -18 60 0 44 -4 47 -39 25 -22 -14 -42 -20 -45 -15 -7 11 -112 210 -212 404 -75 145 -124 174 -124 75z"/> <path d="M5417 5220 c-33 -33 -72 -60 -86 -60 -20 0 -23 -17 -11 -69 8 -38 10 -75 3 -83 -7 -8 -2 -8 12 0 14 8 20 23 14 34 -20 32 12 98 47 99 19 0 51 13 73 30 21 16 54 29 74 29 46 0 69 40 35 62 -51 32 -100 19 -161 -42z"/> <path d="M3737 5160 c-28 -38 -57 -56 -77 -50 -27 9 -32 -7 -28 -101 3 -99 17 -152 34 -127 77 112 114 175 114 194 0 13 9 24 20 24 11 0 20 27 20 60 0 76 -27 76 -83 0z"/> <path d="M5649 5153 c52 -52 101 -76 119 -59 17 18 -93 106 -132 106 -29 0 -26 -8 13 -47z"/> <path d="M4099 5104 c-80 -36 -117 -77 -106 -120 15 -58 34 -55 90 12 26 30 54 56 63 58 52 10 63 24 34 44 -34 24 -38 24 -81 6z"/> <path d="M4969 5099 c-13 -22 25 -79 53 -79 10 0 18 23 18 50 0 51 -46 70 -71 29z"/> <path d="M2833 4951 c59 -70 87 -87 87 -50 0 28 -92 119 -121 119 -13 0 3 -31 34 -69z"/> <path d="M3020 4970 c10 -25 12 -52 5 -59 -7 -7 53 -77 135 -156 90 -88 150 -134 156 -118 4 14 -11 44 -34 65 -23 22 -42 52 -42 67 0 38 -96 111 -144 111 -32 0 -38 12 -33 63 5 47 -2 64 -27 68 -27 4 -30 -4 -16 -41z"/> <path d="M5181 4951 c-17 -20 -19 -71 -8 -175 8 -80 13 -157 10 -171 -3 -14 8 -20 26 -13 27 11 41 48 33 93 -1 8 7 15 18 15 32 0 23 60 -10 73 -32 12 -41 78 -13 95 21 13 5 112 -17 112 -8 0 -26 -13 -39 -29z"/> <path d="M3874 4920 c-68 -81 -167 -232 -223 -345 -32 -64 -70 -126 -85 -138 -14 -12 -26 -34 -26 -49 0 -16 -9 -28 -20 -28 -11 0 -20 8 -20 19 0 10 9 24 20 31 11 7 20 33 20 59 0 56 -79 50 -81 -6 -1 -22 -8 -16 -20 14 -14 34 -26 42 -44 28 -38 -31 -101 3 -182 97 -83 96 -103 95 -71 -4 29 -86 126 -182 189 -185 27 -2 49 -14 49 -28 0 -14 9 -25 20 -25 11 0 17 -20 15 -45 -4 -35 4 -44 38 -41 56 6 68 -109 32 -329 -14 -85 -31 -198 -37 -250 -13 -97 -48 -152 -48 -76 0 22 -8 41 -19 41 -36 0 -39 -33 -8 -91 17 -34 26 -85 20 -119 -34 -195 -55 -289 -83 -363 -17 -45 -30 -90 -27 -100 2 -9 -2 -111 -10 -227 -8 -115 -19 -273 -23 -350 -4 -77 -14 -156 -21 -175 -7 -19 -5 -35 4 -35 10 0 31 38 48 85 16 49 42 85 59 85 35 0 76 79 90 173 l9 67 -23 -55 c-30 -70 -67 -60 -62 17 11 153 23 217 43 224 13 4 6 23 -17 48 -38 41 -37 42 4 124 24 45 41 105 39 133 -4 67 153 130 274 110 43 -8 133 -16 201 -19 l123 -6 -42 46 c-47 49 -141 72 -281 68 -286 -8 -325 6 -262 95 23 31 45 95 49 141 4 46 14 90 21 97 8 8 14 31 14 53 0 21 24 93 54 159 51 113 52 121 18 146 -47 34 -26 208 25 210 18 1 92 4 163 6 141 5 180 19 180 66 0 22 -14 27 -55 19 -66 -14 -195 -33 -270 -40 -85 -8 -105 33 -49 101 26 31 57 75 69 96 12 22 51 50 88 64 37 13 52 25 34 25 -58 3 -57 60 4 150 32 48 59 98 59 110 0 12 12 22 28 22 34 0 98 94 82 121 -18 29 -37 23 -76 -21z"/> <path d="M6103 4785 c-54 -53 -73 -61 -96 -43 -33 28 -31 29 -63 -63 -49 -146 -15 -251 71 -218 25 10 45 32 45 48 0 17 10 31 21 31 12 0 16 9 9 20 -7 12 -22 15 -32 9 -51 -32 -85 11 -41 52 24 22 43 49 43 58 0 10 18 24 41 31 49 16 112 107 87 126 -10 8 -48 -15 -85 -51z"/> <path d="M2766 4805 c-7 -19 -23 -42 -35 -51 -11 -9 10 -13 49 -10 44 4 70 -3 72 -19 2 -14 4 -34 6 -45 3 -31 82 -23 82 8 0 16 5 42 12 59 7 20 -9 41 -49 62 -79 40 -121 39 -137 -4z"/> <path d="M3585 4766 c-25 -5 -45 -22 -45 -37 0 -43 55 -35 80 11 12 22 19 39 16 37 -3 -1 -26 -6 -51 -11z"/> <path d="M4904 4674 c-13 -37 -24 -87 -24 -112 0 -24 -9 -62 -21 -83 -18 -35 -13 -39 43 -39 74 0 75 -112 2 -185 -35 -35 -116 -31 -94 5 6 9 -8 11 -31 6 -76 -20 -37 -75 59 -82 157 -12 206 69 138 230 -12 31 -21 97 -18 146 7 140 -22 202 -54 114z"/> <path d="M3000 4593 c0 -15 18 -43 40 -63 47 -43 62 20 16 66 -32 32 -56 30 -56 -3z"/> <path d="M4700 4500 c-35 -33 -72 -60 -82 -60 -10 0 -18 -13 -18 -30 0 -16 -9 -30 -20 -30 -11 0 -20 -18 -20 -40 0 -22 -10 -40 -22 -40 -12 0 -18 -11 -13 -25 17 -50 -47 -87 -77 -45 -16 21 -28 46 -28 56 0 10 -34 13 -75 7 -175 -27 -225 -38 -225 -53 0 -8 -16 -21 -35 -28 -146 -52 -432 -305 -370 -327 14 -4 25 -26 25 -47 0 -33 5 -35 28 -14 15 14 24 32 20 38 -10 17 47 64 132 110 39 21 75 44 80 51 16 21 247 137 273 137 13 0 27 9 30 20 4 10 36 25 72 32 120 24 90 -70 -46 -143 -143 -77 -207 -161 -106 -138 37 8 72 20 77 27 6 6 69 42 142 79 144 74 272 203 201 203 -60 0 -70 77 -12 92 26 6 55 7 66 0 19 -12 50 58 45 102 -2 12 24 39 56 58 33 20 55 43 50 52 -21 33 -86 14 -148 -44z"/> <path d="M5589 4542 c8 -13 -2 -22 -25 -22 -48 0 -95 -51 -65 -69 12 -8 37 2 56 22 33 33 35 32 42 -21 5 -47 13 -54 50 -42 23 7 59 13 78 13 20 0 30 8 24 19 -7 10 -23 18 -36 16 -52 -6 -71 3 -61 30 7 17 -7 39 -33 52 -30 16 -39 17 -30 2z"/> <path d="M6095 4440 c-41 -22 -75 -34 -75 -26 0 8 -11 3 -24 -10 -29 -29 -83 -32 -66 -4 7 11 4 20 -7 20 -25 0 -183 -188 -183 -218 0 -38 43 -24 84 28 21 28 47 45 58 39 10 -6 18 -2 18 10 0 45 58 18 83 -39 15 -33 34 -60 42 -60 23 0 18 28 -13 71 -32 43 25 114 121 150 26 10 47 32 47 49 0 37 4 38 -85 -10z"/> <path d="M2740 4419 c-15 -27 -3 -40 66 -71 46 -20 89 -42 94 -49 19 -23 300 -151 300 -136 0 8 18 20 39 27 47 15 34 62 -22 77 -22 5 -45 28 -51 51 -8 32 -22 38 -64 29 -36 -7 -63 0 -81 21 -14 18 -38 32 -52 32 -15 0 -52 10 -83 23 -86 35 -126 34 -146 -4z"/> <path d="M6222 4306 c-78 -129 -145 -206 -176 -206 -40 0 -31 -60 9 -62 39 -1 67 -7 153 -29 74 -19 64 29 -14 67 -60 29 -69 59 -24 77 16 6 25 19 19 29 -6 10 -2 18 10 18 11 0 21 13 21 30 0 16 23 44 50 62 51 34 65 76 31 98 -11 6 -46 -31 -79 -84z"/> <path d="M5087 4350 c-16 -42 8 -95 38 -85 14 4 28 27 31 49 7 49 -52 80 -69 36z"/> <path d="M2655 4278 c-49 -28 -44 -53 25 -111 33 -28 56 -58 50 -67 -5 -8 3 -26 19 -39 16 -13 39 -55 52 -93 12 -38 30 -63 41 -57 10 6 18 3 18 -8 0 -29 -100 -87 -130 -76 -14 6 -41 -6 -59 -26 -31 -34 -29 -37 19 -46 34 -6 57 1 70 23 10 17 19 25 19 16 1 -8 28 12 61 46 61 62 75 108 41 129 -22 14 -81 129 -81 159 0 12 -27 50 -59 85 -32 34 -53 68 -47 75 18 18 1 14 -39 -10z"/> <path d="M5391 4262 c-19 -32 47 -72 75 -44 18 18 17 28 -6 43 -38 23 -55 24 -69 1z"/> <path d="M4993 4082 c-9 -45 -32 -71 -91 -101 -44 -22 -85 -50 -92 -61 -7 -11 -30 -20 -51 -20 -22 0 -39 -8 -39 -18 0 -10 -34 -35 -75 -55 -48 -24 -77 -53 -81 -81 -4 -25 -33 -67 -65 -94 -33 -27 -59 -55 -59 -63 0 -7 -45 -70 -101 -140 -56 -70 -101 -132 -100 -138 1 -6 -4 -9 -11 -6 -26 11 -72 -109 -50 -131 37 -37 25 -50 -40 -47 -43 2 -70 -9 -85 -35 -47 -79 -87 -125 -195 -224 -37 -34 -95 -96 -128 -137 -33 -42 -75 -90 -92 -108 -31 -31 -98 -149 -98 -172 0 -24 37 -8 92 40 32 27 78 55 103 62 25 6 45 20 45 30 0 10 40 43 89 75 50 31 84 62 76 70 -7 7 7 19 31 25 24 7 50 33 56 58 11 43 50 74 98 78 31 3 70 31 70 52 0 10 -13 13 -30 6 -16 -6 -30 -1 -30 11 0 12 22 22 48 22 38 0 52 13 62 58 9 45 21 55 51 48 24 -7 43 2 51 22 7 17 24 32 38 32 15 0 84 28 153 62 70 34 158 77 195 95 90 44 109 92 29 76 -80 -17 -157 -32 -302 -58 -132 -24 -150 -40 -86 -75 22 -11 35 -33 29 -47 -12 -32 -133 -29 -144 4 -4 13 -20 23 -36 23 -15 0 -28 9 -28 20 0 11 13 20 28 20 16 0 32 7 35 16 4 9 65 64 137 123 71 59 139 126 150 149 12 23 40 45 64 48 36 5 42 16 33 70 -11 63 185 193 293 195 64 1 100 52 100 141 -1 114 -30 164 -47 80z"/> <path d="M3210 4100 c57 -24 155 -24 140 0 -7 11 -50 19 -96 19 -65 -1 -75 -6 -44 -19z"/> <path d="M5440 4064 c0 -13 -17 -24 -39 -24 -21 0 -44 -9 -52 -21 -7 -12 -23 -17 -36 -13 -13 5 -48 -6 -79 -23 -49 -29 -58 -29 -75 -3 -11 19 -19 21 -19 6 0 -29 -94 -126 -121 -126 -10 0 -19 -13 -19 -30 0 -32 92 -43 103 -13 14 36 97 48 97 14 0 -17 -11 -31 -25 -32 -14 0 -9 -9 10 -21 29 -16 48 -8 99 43 71 71 132 99 219 99 33 0 77 9 98 21 74 39 40 -18 -44 -75 -102 -68 -160 -144 -168 -217 l-6 -56 48 53 c27 29 49 64 49 79 0 14 19 39 43 56 24 16 71 53 105 81 34 29 85 59 112 66 218 58 282 110 115 93 -20 -2 -35 10 -35 28 0 21 -19 31 -60 31 -46 0 -60 -9 -60 -39 0 -68 -183 -59 -234 12 -15 19 -26 24 -26 11z"/> <path d="M5964 3976 c-13 -13 -23 -47 -23 -75 2 -50 2 -50 20 -6 26 65 43 55 35 -20 -6 -64 -5 -65 84 -66 219 -3 272 32 110 73 -47 12 -107 44 -132 70 -51 55 -61 57 -94 24z"/> <path d="M3185 3901 c-155 -25 -165 -91 -17 -110 47 -6 94 -29 123 -60 55 -59 69 -63 69 -20 0 18 -10 25 -22 18 -16 -10 -16 -3 0 27 16 31 15 43 -3 51 -20 8 -19 14 1 29 27 18 -18 88 -52 81 -8 -1 -52 -8 -99 -16z"/> <path d="M5794 3784 c-41 -42 -74 -85 -74 -97 0 -12 -38 -62 -85 -112 -297 -313 -305 -323 -354 -430 -11 -25 -34 -45 -51 -45 -16 0 -30 -10 -30 -22 0 -16 -9 -15 -30 2 -35 29 -93 12 -85 -24 3 -14 -17 -28 -45 -32 -66 -10 -100 -40 -100 -88 0 -21 -9 -33 -20 -26 -11 7 -20 -9 -20 -35 0 -36 -21 -58 -85 -91 -47 -24 -77 -44 -66 -44 10 0 -44 -62 -120 -137 -157 -155 -189 -193 -189 -221 0 -10 -21 -44 -47 -75 -64 -79 -81 -129 -37 -113 47 18 105 79 182 191 189 280 479 484 359 253 -46 -87 -37 -120 24 -82 48 30 60 30 54 2 -3 -13 6 -27 20 -32 32 -12 12 105 -30 172 -27 44 -26 58 14 154 24 59 40 114 34 123 -6 9 21 19 58 22 67 4 95 -24 44 -43 -14 -6 8 -8 49 -5 40 3 117 33 170 66 116 74 264 145 300 145 14 0 26 10 26 23 0 38 -188 8 -259 -42 -116 -83 -83 12 58 164 54 59 169 77 187 30 11 -26 145 112 203 209 42 71 5 91 -40 21 -46 -74 -131 -143 -174 -144 -19 -1 -35 -10 -35 -21 0 -11 -9 -20 -21 -20 -48 0 44 115 120 149 80 37 110 91 50 91 -24 0 -26 8 -9 40 12 22 31 40 42 40 11 0 15 -9 8 -20 -7 -11 -8 -20 -3 -20 9 0 113 177 113 193 0 24 -41 -3 -106 -69z"/> <path d="M3721 3736 c-1 -19 16 -44 38 -55 48 -26 61 -26 61 -1 0 11 -10 20 -23 20 -12 0 -35 16 -49 35 -25 33 -27 33 -27 1z"/> <path d="M5994 3727 c-20 -19 -17 -103 3 -115 10 -6 66 6 125 27 106 37 105 45 -5 69 -29 7 -66 17 -81 23 -16 5 -34 4 -42 -4z"/> <path d="M4932 3628 c-15 -39 1 -68 37 -68 17 0 23 15 17 40 -14 54 -39 67 -54 28z"/> <path d="M6260 3621 c-22 -14 -8 -22 55 -33 47 -7 85 -21 85 -31 0 -9 9 -17 20 -17 40 0 18 54 -31 77 -61 28 -89 29 -129 4z"/> <path d="M5095 3606 c-41 -11 -48 -86 -7 -86 15 0 32 23 37 50 5 28 8 49 7 48 -1 -2 -18 -7 -37 -12z"/> <path d="M2675 3546 c-19 -5 -35 -26 -35 -47 0 -21 -21 -52 -46 -68 -42 -27 -60 -112 -30 -141 5 -6 50 26 98 70 73 67 83 84 58 101 -26 17 -26 23 5 46 19 15 29 33 21 40 -13 14 -16 14 -71 -1z"/> <path d="M5320 3532 c0 -36 90 -44 140 -12 25 16 23 19 -10 20 -22 0 -60 6 -85 13 -33 8 -45 3 -45 -21z"/> <path d="M5980 3530 c0 -33 58 -38 187 -17 104 17 54 46 -82 47 -80 0 -105 -7 -105 -30z"/> <path d="M2973 3498 c-21 -19 -32 -47 -27 -62 8 -19 11 -20 12 -1 1 14 15 25 31 25 36 0 53 25 35 53 -9 14 -27 9 -51 -15z"/> <path d="M4960 3409 c-1 -28 -196 -225 -348 -349 -185 -151 -238 -201 -227 -212 31 -30 297 133 337 207 13 24 43 50 65 57 22 7 55 31 73 52 20 26 58 40 106 42 89 2 107 100 34 179 -22 23 -40 34 -40 24z"/> <path d="M6000 3388 c0 -21 11 -28 32 -20 17 7 49 12 70 12 21 0 38 9 38 20 0 11 -31 20 -70 20 -51 0 -70 -9 -70 -32z"/> <path d="M3040 3324 c0 -25 -147 -84 -212 -84 -124 -1 -127 -51 -6 -97 41 -16 55 -12 74 18 14 22 36 33 53 26 18 -6 55 14 91 49 66 67 77 104 30 104 -16 0 -30 -7 -30 -16z"/> <path d="M5728 3226 c-43 -53 -144 -160 -225 -238 -90 -87 -139 -148 -126 -156 30 -19 416 359 432 422 20 80 2 74 -81 -28z"/> <path d="M5998 3305 c-2 -8 -1 -24 2 -35 3 -11 6 -42 7 -70 3 -58 84 -61 128 -5 23 30 25 30 25 -1 0 -27 19 -34 93 -34 102 0 110 21 9 24 -34 1 -62 10 -62 20 0 9 31 15 69 13 38 -3 75 1 83 8 13 13 2 14 -150 19 -56 1 -101 15 -125 39 -38 38 -75 48 -79 22z"/> <path d="M5934 3108 c-6 -7 7 -38 30 -69 33 -45 39 -73 28 -139 -11 -73 -8 -85 27 -94 23 -6 41 -20 41 -32 0 -15 7 -15 23 1 16 16 17 32 3 49 -11 14 -35 65 -54 113 l-34 88 53 -14 c39 -9 50 -6 44 13 -5 14 -28 24 -50 22 -26 -3 -44 10 -51 35 -10 39 -36 50 -60 27z"/> <path d="M3011 3069 c-17 -18 -31 -26 -31 -20 0 7 -19 2 -42 -10 -50 -27 -2 -77 76 -78 24 -1 57 -15 73 -31 18 -18 35 -22 42 -11 7 10 -13 33 -43 49 -31 17 -44 31 -30 31 15 1 21 9 15 20 -6 10 -3 24 9 31 11 7 20 21 20 31 0 30 -54 22 -89 -12z"/> <path d="M5755 3011 c-30 -38 -55 -74 -55 -80 0 -7 -48 -59 -106 -116 -58 -58 -146 -154 -195 -213 -119 -144 -160 -182 -198 -182 -45 0 -209 -151 -192 -178 20 -33 42 -27 107 27 32 28 64 44 71 37 7 -7 13 7 13 32 0 24 9 39 20 32 11 -7 20 -30 20 -51 0 -61 30 -46 92 46 32 47 62 90 68 95 5 6 26 42 46 80 68 131 163 226 211 211 24 -8 38 -23 31 -35 -8 -12 -2 -17 14 -12 37 12 74 141 43 151 -15 5 -2 46 36 116 67 124 55 142 -26 40z"/> <path d="M2672 2901 c30 -27 184 -43 198 -21 7 12 6 20 -4 18 -9 -1 -20 -1 -26 1 -39 13 -182 15 -168 2z"/> <path d="M5882 2792 c-13 -15 -31 -54 -41 -85 -9 -31 -23 -73 -31 -92 -9 -21 -5 -35 8 -35 12 0 22 11 22 26 0 14 18 41 40 59 24 21 40 59 40 95 0 68 -5 72 -38 32z"/> <path d="M4530 2745 c-142 -39 -156 -42 -193 -43 -18 -1 -37 -20 -43 -42 -6 -22 -42 -54 -80 -70 -38 -15 -74 -42 -81 -59 -6 -17 -24 -31 -39 -31 -15 0 -44 -18 -64 -40 -20 -22 -49 -40 -64 -40 -15 0 -32 -13 -39 -30 -6 -16 -20 -30 -31 -30 -27 0 -76 -53 -62 -67 6 -6 29 -2 51 10 30 16 36 15 25 -3 -11 -18 -2 -20 32 -10 65 20 72 29 38 50 -24 15 -22 20 11 31 86 28 309 138 309 152 0 8 32 30 70 48 39 19 70 44 70 57 0 13 19 25 43 27 24 2 50 13 57 26 8 12 20 22 27 21 35 -3 133 25 133 38 0 30 -71 31 -170 5z"/> <path d="M2985 2719 c-76 -30 -50 -59 53 -59 133 0 170 15 133 52 -31 31 -118 35 -186 7z"/> <path d="M2681 2674 c-134 -46 -182 -94 -94 -94 28 0 73 9 101 19 32 13 55 13 62 0 7 -10 21 -19 32 -19 11 0 15 8 9 18 -6 11 11 37 39 58 98 78 44 84 -149 18z"/> <path d="M2831 2582 c-13 -22 35 -42 103 -42 43 0 47 5 26 30 -27 33 -111 41 -129 12z"/> <path d="M5582 2514 c-53 -53 2 -75 67 -27 35 26 35 27 -4 38 -23 6 -51 1 -63 -11z"/> <path d="M5909 2498 c-7 -12 -54 -39 -103 -60 -108 -46 -342 -223 -310 -233 29 -10 132 52 255 154 51 42 117 82 146 88 89 18 147 72 79 72 -29 1 -60 -9 -67 -21z"/> <path d="M3090 2465 c-33 -18 -69 -43 -80 -56 -11 -14 -60 -50 -110 -81 -124 -78 -53 -92 76 -15 52 31 111 66 132 77 21 11 51 40 67 65 36 55 8 58 -85 10z"/> <path d="M2553 2412 c-115 -110 28 -86 167 28 l50 40 -77 -4 c-55 -3 -96 -22 -140 -64z"/> <path d="M2880 2430 c-44 -25 -45 -29 -10 -29 60 -1 130 21 130 41 0 27 -63 20 -120 -12z"/> <path d="M3155 2294 c-30 -12 -55 -34 -55 -49 0 -21 13 -19 60 8 45 27 90 80 55 65 -3 -1 -30 -12 -60 -24z"/> <path d="M4925 2238 c-25 -9 -45 -11 -45 -5 0 7 -14 0 -31 -14 -25 -20 -26 -29 -5 -42 20 -13 20 -16 1 -17 -14 0 -25 -9 -25 -21 0 -14 12 -14 37 0 21 11 43 14 50 7 7 -7 13 -2 13 12 0 13 9 19 20 12 11 -7 26 1 32 18 19 50 2 68 -47 50z"/> <path d="M2601 2192 c-23 -29 42 -55 119 -48 17 1 71 1 120 -1 l90 -3 -130 -61 c-144 -68 -152 -74 -135 -91 6 -6 42 2 78 19 37 17 128 57 202 90 163 73 165 80 29 79 -59 -1 -126 9 -149 21 -59 32 -195 29 -224 -5z"/> <path d="M3630 2105 c30 -31 190 -53 190 -27 0 12 -17 22 -37 22 -21 0 -68 6 -105 13 -47 8 -62 6 -48 -8z"/> <path d="M3850 2104 c11 -10 70 -25 130 -32 136 -15 92 17 -50 37 -64 9 -93 7 -80 -5z"/> <path d="M3052 2050 c-21 -16 -48 -32 -60 -37 -12 -4 -16 -14 -9 -22 17 -18 137 43 137 70 0 26 -23 23 -68 -11z"/> <path d="M2532 1949 c-7 -18 -3 -26 8 -19 11 7 34 -1 50 -17 34 -35 40 -113 9 -113 -12 0 -16 -9 -10 -19 16 -26 393 -17 386 9 -3 11 -34 17 -68 14 -35 -3 -70 4 -77 15 -7 12 -38 21 -70 21 -43 0 -72 18 -111 70 -58 75 -98 89 -117 39z"/> <path d="M2844 1913 c-59 -21 -45 -24 129 -20 120 2 199 12 203 25 10 30 -247 26 -332 -5z"/> <path d="M3053 1823 c-42 -47 -44 -106 -2 -90 25 10 26 17 5 43 -15 18 -16 26 -4 18 13 -7 39 5 58 26 30 33 31 40 6 40 -16 0 -45 -16 -63 -37z"/> <path d="M2584 1717 c10 -29 217 -39 326 -16 38 9 5 14 -91 14 -84 0 -173 7 -198 15 -34 10 -43 7 -37 -13z"/> <path d="M5105 1364 c-51 -8 -59 -34 -15 -51 17 -7 30 -26 30 -44 0 -17 9 -26 20 -19 55 34 104 28 94 -11 -7 -26 0 -39 20 -39 22 0 28 14 21 49 -6 32 2 53 22 61 50 19 -15 51 -74 36 -26 -6 -53 -3 -60 7 -7 9 -33 15 -58 11z"/> <path d="M5445 1257 c0 -37 12 -50 48 -53 31 -2 47 7 47 28 0 20 -11 28 -29 21 -17 -6 -38 3 -48 21 -15 26 -18 23 -18 -17z"/> <path d="M6313 967 c-21 -22 -15 -483 7 -497 23 -14 2201 -16 2215 -1 18 17 16 461 -2 486 -19 27 -2193 38 -2220 12z m416 -138 c68 -69 8 -169 -102 -169 -54 0 -67 -8 -67 -40 0 -27 -13 -40 -41 -40 -36 0 -41 11 -35 75 6 74 7 75 102 81 120 8 118 54 -1 54 -88 0 -117 15 -96 49 21 33 203 26 240 -10z m391 -29 c0 -27 13 -40 40 -40 32 0 40 -13 40 -70 0 -38 -9 -70 -20 -70 -11 0 -20 23 -20 50 0 28 -9 50 -20 50 -11 0 -20 -22 -20 -50 0 -27 -9 -50 -20 -50 -11 0 -20 50 -20 110 0 61 9 110 20 110 11 0 20 -18 20 -40z m-84 -4 c38 -38 28 -75 -26 -100 -27 -12 -50 -34 -50 -49 0 -15 -9 -27 -20 -27 -11 0 -20 45 -20 100 0 105 53 139 116 76z m764 -6 c19 -23 20 -36 1 -59 -18 -21 -18 -39 -2 -70 18 -32 16 -41 -5 -41 -15 0 -38 20 -50 45 l-21 45 -2 -45 c-3 -100 -61 -48 -61 55 0 107 77 146 140 70z m-338 -5 c16 -113 9 -166 -20 -161 -53 10 -55 176 -3 176 12 0 22 -7 23 -15z m-95 -68 c41 -67 -73 -134 -122 -72 -13 15 -14 43 -3 71 21 54 91 54 125 1z m252 14 c42 -50 17 -101 -49 -101 -48 0 -61 10 -67 48 -10 73 69 110 116 53z m335 -12 l11 -41 29 41 c36 53 98 52 127 0 38 -72 -56 -136 -115 -77 -15 15 -33 14 -61 -4 -73 -45 -157 29 -105 92 36 44 102 37 114 -11z m406 -31 c0 -37 -9 -68 -20 -68 -11 0 -20 23 -20 50 0 28 -9 50 -20 50 -11 0 -20 -22 -20 -50 0 -27 -9 -50 -20 -50 -11 0 -20 23 -20 50 0 28 -9 50 -20 50 -11 0 -20 -22 -20 -50 0 -27 -9 -50 -20 -50 -11 0 -20 31 -20 69 l0 69 100 -1 100 -1 0 -68z m-1604 -75 c5 -22 -6 -33 -33 -33 -51 0 -77 39 -41 62 37 23 67 12 74 -29z"/> </g> </svg> 